<?xml version="1.0" encoding="UTF-8"?>
<!DOCTYPE svg PUBLIC "-//W3C//DTD SVG 1.1//EN" "http://www.w3.org/Graphics/SVG/1.1/DTD/svg11.dtd">
<svg xmlns="http://www.w3.org/2000/svg" version="1.1" width="2048px" height="2048px" style="shape-rendering:geometricPrecision; text-rendering:geometricPrecision; image-rendering:optimizeQuality; fill-rule:evenodd; clip-rule:evenodd" xmlns:xlink="http://www.w3.org/1999/xlink">
<g><path style="opacity:1" fill="#1b75bb" d="M 979.5,-0.5 C 1008.83,-0.5 1038.17,-0.5 1067.5,-0.5C 1118.97,1.97529 1169.97,8.30862 1220.5,18.5C 1221.72,20.3005 1223.55,21.3005 1226,21.5C 1227.88,19.8769 1229.21,20.2102 1230,22.5C 1232.67,22.1663 1235.17,22.1663 1237.5,22.5C 1238.17,22.6667 1238.83,22.8333 1239.5,23C 1238.66,24.6665 1239.16,24.8331 1241,23.5C 1245.04,25.8123 1249.2,26.4789 1253.5,25.5C 1262.33,26.8756 1271,28.8756 1279.5,31.5C 1280.89,33.9237 1282.73,35.2571 1285,35.5C 1286.36,34.6198 1287.86,34.2865 1289.5,34.5C 1455.63,79.4011 1600.97,160.234 1725.5,277C 1896.08,439.638 1999.75,638.138 2036.5,872.5C 2036.12,876.489 2036.78,880.155 2038.5,883.5C 2042.71,915.532 2045.71,947.532 2047.5,979.5C 2047.5,1008.83 2047.5,1038.17 2047.5,1067.5C 2042.93,1166.35 2024.6,1262.68 1992.5,1356.5C 1991.5,1356.41 1990.67,1356.75 1990,1357.5C 1987.97,1362.29 1986.81,1367.29 1986.5,1372.5C 1913.42,1569.88 1792.08,1730.71 1622.5,1855C 1456.63,1973.13 1271.63,2037.29 1067.5,2047.5C 1038.17,2047.5 1008.83,2047.5 979.5,2047.5C 953.85,2046.11 928.183,2043.78 902.5,2040.5C 897.731,2039.11 892.731,2038.44 887.5,2038.5C 886.167,2038.5 884.833,2038.5 883.5,2038.5C 880.155,2036.78 876.489,2036.12 872.5,2036.5C 638.138,1999.75 439.638,1896.08 277,1725.5C 155.727,1595.77 73.2267,1444.11 29.5,1270.5C 29.3573,1268.74 29.6906,1267.07 30.5,1265.5C 30.1543,1264.3 29.6543,1264.3 29,1265.5C 28.3162,1264.22 28.4829,1263.05 29.5,1262C 28.3094,1261.3 27.3094,1260.47 26.5,1259.5C 11.6022,1195.88 2.60216,1131.55 -0.5,1066.5C -0.5,1037.83 -0.5,1009.17 -0.5,980.5C 15.362,703.328 122.695,468.828 321.5,277C 506.917,106.079 726.251,13.579 979.5,-0.5 Z"/></g>
<g><path style="opacity:1" fill="#528bc6" d="M 1220.5,18.5 C 1231.8,19.9594 1242.8,22.2927 1253.5,25.5C 1249.2,26.4789 1245.04,25.8123 1241,23.5C 1239.16,24.8331 1238.66,24.6665 1239.5,23C 1238.83,22.8333 1238.17,22.6667 1237.5,22.5C 1235.17,22.1663 1232.67,22.1663 1230,22.5C 1229.21,20.2102 1227.88,19.8769 1226,21.5C 1223.55,21.3005 1221.72,20.3005 1220.5,18.5 Z"/></g>
<g><path style="opacity:1" fill="#6498cc" d="M 1279.5,31.5 C 1283.12,31.8993 1286.45,32.8993 1289.5,34.5C 1287.86,34.2865 1286.36,34.6198 1285,35.5C 1282.73,35.2571 1280.89,33.9237 1279.5,31.5 Z"/></g>
<g><path style="opacity:1" fill="#124c7c" d="M 853.5,1041.5 C 825.153,988.286 780.82,957.786 720.5,950C 697.665,947.338 674.999,948.172 652.5,952.5C 665.455,913.289 668.955,873.289 663,832.5C 649.722,780.418 616.555,749.585 563.5,740C 519.922,735.051 477.589,740.051 436.5,755C 414.195,763.321 392.862,773.488 372.5,785.5C 345.268,776.508 317.268,772.508 288.5,773.5C 286.594,746.2 286.094,718.867 287,691.5C 287.128,673.111 292.795,656.778 304,642.5C 318.168,628.997 334.001,617.83 351.5,609C 468.21,550.81 590.21,535.81 717.5,564C 761.902,576.03 801.568,596.697 836.5,626C 882.817,670.143 908.651,724.31 914,788.5C 921.543,878.981 902.043,962.981 855.5,1040.5C 855.043,1041.3 854.376,1041.63 853.5,1041.5 Z"/></g>
<g><path style="opacity:1" fill="#124c7c" d="M 1678.5,962.5 C 1643.93,949.785 1608.26,945.618 1571.5,950C 1531.16,955.005 1496.5,971.505 1467.5,999.5C 1479.19,1011.53 1490.86,1023.53 1502.5,1035.5C 1537.3,1006.63 1577.3,995.126 1622.5,1001C 1634.38,1003.12 1645.38,1007.29 1655.5,1013.5C 1645.84,1036.82 1636.17,1060.16 1626.5,1083.5C 1590.48,1083.84 1555.48,1090 1521.5,1102C 1463.71,1126.41 1442.21,1169.25 1457,1230.5C 1468.17,1257.67 1487.33,1276.83 1514.5,1288C 1521.15,1290.36 1527.81,1292.52 1534.5,1294.5C 1495.29,1386.59 1455.79,1478.59 1416,1570.5C 1408.74,1583.25 1397.91,1591.25 1383.5,1594.5C 1366.68,1597.86 1349.68,1599.7 1332.5,1600C 1298.13,1601.03 1263.79,1600.37 1229.5,1598C 1215.78,1596.76 1202.78,1593.09 1190.5,1587C 1182.97,1581.74 1180.13,1574.58 1182,1565.5C 1187.94,1550.35 1194.27,1535.35 1201,1520.5C 1235.61,1444.95 1269.94,1369.29 1304,1293.5C 1304.38,1292.06 1305.21,1291.06 1306.5,1290.5C 1325.17,1290.5 1343.83,1290.5 1362.5,1290.5C 1362.5,1248.17 1362.5,1205.83 1362.5,1163.5C 1425.41,1026.02 1488.07,888.35 1550.5,750.5C 1551.04,750.44 1551.38,750.107 1551.5,749.5C 1405.5,748.5 1259.5,748.167 1113.5,748.5C 1109.04,747.213 1105.21,744.88 1102,741.5C 1097.61,735.391 1094.28,728.724 1092,721.5C 1083.38,679.808 1083.38,638.141 1092,596.5C 1094,588.831 1097.33,581.831 1102,575.5C 1104.89,572.943 1108.06,570.776 1111.5,569C 1322.17,568.333 1532.83,568.333 1743.5,569C 1753.72,569.361 1761.89,573.528 1768,581.5C 1773.65,591.774 1776.99,602.774 1778,614.5C 1780.94,652.328 1779.61,689.995 1774,727.5C 1770.88,742.181 1766.55,756.515 1761,770.5C 1733.4,834.483 1705.9,898.483 1678.5,962.5 Z"/></g>
<g><path style="opacity:1" fill="#15588f" d="M 1113.5,748.5 C 1259.5,748.167 1405.5,748.5 1551.5,749.5C 1551.38,750.107 1551.04,750.44 1550.5,750.5C 1404.83,749.833 1259.17,749.167 1113.5,748.5 Z"/></g>
<g><path style="opacity:1" fill="#fefffe" d="M 1901.5,752.5 C 1901.5,931.5 1901.5,1110.5 1901.5,1289.5C 1883.17,1289.5 1864.83,1289.5 1846.5,1289.5C 1846.5,1110.5 1846.5,931.5 1846.5,752.5C 1864.83,752.5 1883.17,752.5 1901.5,752.5 Z"/></g>
<g><path style="opacity:1" fill="#fefefe" d="M 288.5,773.5 C 317.268,772.508 345.268,776.508 372.5,785.5C 398.661,795.254 420.661,810.921 438.5,832.5C 423.007,846.49 407.341,860.324 391.5,874C 390.5,874.667 389.5,874.667 388.5,874C 369.986,847.232 344.32,832.565 311.5,830C 282.145,826.738 254.478,832.071 228.5,846C 193.522,869.591 182.355,901.758 195,942.5C 203.808,960.641 217.308,974.141 235.5,983C 242.833,986.333 250.167,989.667 257.5,993C 289.306,1003.6 320.972,1014.6 352.5,1026C 432.141,1057.78 461.641,1115.61 441,1199.5C 428.606,1236.23 405.106,1263.4 370.5,1281C 346.966,1291.88 322.3,1298.72 296.5,1301.5C 282.516,1302.32 268.516,1302.65 254.5,1302.5C 209.145,1300.97 169.145,1285.8 134.5,1257C 127.959,1250.13 121.793,1242.96 116,1235.5C 115.219,1234.06 115.386,1232.72 116.5,1231.5C 132.833,1218.17 149.167,1204.83 165.5,1191.5C 187.695,1224.28 218.695,1242.78 258.5,1247C 287.975,1249.22 315.641,1243.22 341.5,1229C 376.836,1206.47 389.669,1174.63 380,1133.5C 373.568,1115.73 362.068,1102.23 345.5,1093C 334.582,1087.03 323.249,1082.03 311.5,1078C 278.952,1067.26 246.618,1055.93 214.5,1044C 149.757,1018.04 120.59,970.203 127,900.5C 133.533,853.979 157.367,819.479 198.5,797C 226.767,782.513 256.767,774.68 288.5,773.5 Z"/></g>
<g><path style="opacity:1" fill="#fdfdfe" d="M 1324.5,786.5 C 1349.44,783.639 1365.94,793.972 1374,817.5C 1377.08,835.409 1371.58,849.909 1357.5,861C 1337.7,871.485 1319.53,869.319 1303,854.5C 1290.82,837.011 1290.49,819.345 1302,801.5C 1308.34,794.591 1315.84,789.591 1324.5,786.5 Z"/></g>
<g><path style="opacity:0.725" fill="#76a6d3" d="M 2036.5,872.5 C 2037.52,875.974 2038.19,879.64 2038.5,883.5C 2036.78,880.155 2036.12,876.489 2036.5,872.5 Z"/></g>
<g><path style="opacity:1" fill="#fdfefe" d="M 853.5,1041.5 C 875.269,1087.47 878.436,1134.8 863,1183.5C 836.303,1253.5 785.469,1291.67 710.5,1298C 688.583,1299.66 666.916,1298.16 645.5,1293.5C 576.822,1274.49 534.822,1230.15 519.5,1160.5C 509.285,1103.7 521.785,1052.7 557,1007.5C 582.702,978.726 614.535,960.393 652.5,952.5C 674.999,948.172 697.665,947.338 720.5,950C 780.82,957.786 825.153,988.286 853.5,1041.5 Z"/></g>
<g><path style="opacity:1" fill="#fdfefe" d="M 1095.5,1298.5 C 1090.73,1297.11 1085.73,1296.44 1080.5,1296.5C 1002.54,1282.04 956.372,1235.71 942,1157.5C 932.133,1100.97 944.799,1050.3 980,1005.5C 1024.34,958.832 1078.5,940.665 1142.5,951C 1180.84,956.337 1213.18,973.004 1239.5,1001C 1225.28,1014.39 1210.61,1027.23 1195.5,1039.5C 1165.75,1005.97 1128.75,993.473 1084.5,1002C 1043.35,1012.15 1016.85,1037.65 1005,1078.5C 994.9,1116.75 998.233,1153.75 1015,1189.5C 1044.07,1238.32 1086.57,1256.49 1142.5,1244C 1164.76,1237.72 1182.6,1225.22 1196,1206.5C 1209.68,1219.68 1223.52,1232.68 1237.5,1245.5C 1209.03,1277.19 1173.36,1294.69 1130.5,1298C 1118.84,1298.5 1107.17,1298.67 1095.5,1298.5 Z"/></g>
<g><path style="opacity:1" fill="#fdfefe" d="M 1678.5,962.5 C 1709.7,979.251 1728.54,1005.25 1735,1040.5C 1736.88,1050.09 1738.21,1059.76 1739,1069.5C 1739.33,1128.17 1739.67,1186.83 1740,1245.5C 1740.51,1260.61 1742.01,1275.61 1744.5,1290.5C 1726.5,1290.5 1708.5,1290.5 1690.5,1290.5C 1688.32,1273.91 1686.98,1257.25 1686.5,1240.5C 1655.16,1285.16 1612.16,1304.33 1557.5,1298C 1549.73,1297.41 1542.07,1296.25 1534.5,1294.5C 1527.81,1292.52 1521.15,1290.36 1514.5,1288C 1487.33,1276.83 1468.17,1257.67 1457,1230.5C 1442.21,1169.25 1463.71,1126.41 1521.5,1102C 1555.48,1090 1590.48,1083.84 1626.5,1083.5C 1645.5,1083.5 1664.5,1083.5 1683.5,1083.5C 1686.44,1061.27 1681.28,1041.27 1668,1023.5C 1663.96,1019.95 1659.79,1016.62 1655.5,1013.5C 1645.38,1007.29 1634.38,1003.12 1622.5,1001C 1577.3,995.126 1537.3,1006.63 1502.5,1035.5C 1490.86,1023.53 1479.19,1011.53 1467.5,999.5C 1496.5,971.505 1531.16,955.005 1571.5,950C 1608.26,945.618 1643.93,949.785 1678.5,962.5 Z"/></g>
<g><path style="opacity:1" fill="#fefffe" d="M 1361.5,957.5 C 1361.5,1068.17 1361.5,1178.83 1361.5,1289.5C 1343.17,1289.5 1324.83,1289.5 1306.5,1289.5C 1306.5,1178.83 1306.5,1068.17 1306.5,957.5C 1324.83,957.5 1343.17,957.5 1361.5,957.5 Z"/></g>
<g><path style="opacity:1" fill="#124c7c" d="M 810.5,1101.5 C 810.998,1105.22 810.164,1108.55 808,1111.5C 771.578,1158.77 732.744,1204.1 691.5,1247.5C 689.5,1247.5 687.5,1247.5 685.5,1247.5C 680.731,1246.11 675.731,1245.44 670.5,1245.5C 625.279,1235.78 595.779,1208.78 582,1164.5C 574.514,1136.38 574.681,1108.38 582.5,1080.5C 595.338,1063.65 607.004,1045.99 617.5,1027.5C 643.307,1005.4 673.307,996.236 707.5,1000C 754.999,1006.51 787.499,1032.01 805,1076.5C 807.942,1084.6 809.775,1092.93 810.5,1101.5 Z"/></g>
<g><path style="opacity:1" fill="#1d75bb" d="M 1655.5,1013.5 C 1659.79,1016.62 1663.96,1019.95 1668,1023.5C 1681.28,1041.27 1686.44,1061.27 1683.5,1083.5C 1664.5,1083.5 1645.5,1083.5 1626.5,1083.5C 1636.17,1060.16 1645.84,1036.82 1655.5,1013.5 Z"/></g>
<g><path style="opacity:1" fill="#2175ba" d="M 617.5,1027.5 C 607.004,1045.99 595.338,1063.65 582.5,1080.5C 588.944,1059.25 600.611,1041.58 617.5,1027.5 Z"/></g>
<g><path style="opacity:1" fill="#1c75bb" d="M 810.5,1101.5 C 816.536,1139.48 808.369,1174.15 786,1205.5C 761.187,1234.28 729.687,1248.28 691.5,1247.5C 732.744,1204.1 771.578,1158.77 808,1111.5C 810.164,1108.55 810.998,1105.22 810.5,1101.5 Z"/></g>
<g><path style="opacity:1" fill="#1b74ba" d="M 1600.5,1131.5 C 1627.99,1130.5 1655.66,1130.17 1683.5,1130.5C 1685.91,1157.59 1681.08,1183.26 1669,1207.5C 1654.69,1230.42 1634.19,1244.59 1607.5,1250C 1594.2,1251.52 1580.87,1251.86 1567.5,1251C 1562.92,1250.25 1558.59,1249.08 1554.5,1247.5C 1571.89,1209.22 1588.89,1170.72 1605.5,1132C 1603.87,1131.51 1602.2,1131.34 1600.5,1131.5 Z"/></g>
<g><path style="opacity:1" fill="#134c7c" d="M 1600.5,1131.5 C 1602.2,1131.34 1603.87,1131.51 1605.5,1132C 1588.89,1170.72 1571.89,1209.22 1554.5,1247.5C 1521.9,1238.68 1508.06,1217.35 1513,1183.5C 1516.83,1166.67 1526.33,1154.17 1541.5,1146C 1560.19,1137.24 1579.85,1132.41 1600.5,1131.5 Z"/></g>
<g><path style="opacity:1" fill="#124c7c" d="M 519.5,1160.5 C 534.822,1230.15 576.822,1274.49 645.5,1293.5C 602.34,1337.49 559.34,1381.66 516.5,1426C 653.167,1426.33 789.833,1426.67 926.5,1427C 935.131,1429.96 941.631,1435.46 946,1443.5C 951.746,1456.56 955.08,1470.23 956,1484.5C 956.938,1507.88 956.272,1531.21 954,1554.5C 952.291,1563.34 949.958,1572 947,1580.5C 943.253,1587.92 937.42,1592.75 929.5,1595C 724.5,1595.67 519.5,1595.67 314.5,1595C 294.439,1593.91 280.939,1584.08 274,1565.5C 268.468,1545.72 266.302,1525.55 267.5,1505C 263.962,1465.29 273.795,1429.46 297,1397.5C 301.906,1392.02 306.572,1386.35 311,1380.5C 380,1306.83 449,1233.17 518,1159.5C 518.383,1160.06 518.883,1160.39 519.5,1160.5 Z"/></g>
<g><path style="opacity:1" fill="#4e769b" d="M 670.5,1245.5 C 675.731,1245.44 680.731,1246.11 685.5,1247.5C 680.269,1247.56 675.269,1246.89 670.5,1245.5 Z"/></g>
<g><path style="opacity:1" fill="#6398cc" d="M 26.5,1259.5 C 27.3094,1260.47 28.3094,1261.3 29.5,1262C 28.4829,1263.05 28.3162,1264.22 29,1265.5C 29.6543,1264.3 30.1543,1264.3 30.5,1265.5C 29.6906,1267.07 29.3573,1268.74 29.5,1270.5C 28.0552,1267.06 27.0552,1263.4 26.5,1259.5 Z"/></g>
<g><path style="opacity:1" fill="#86a7c1" d="M 1361.5,957.5 C 1362.5,1026 1362.83,1094.66 1362.5,1163.5C 1362.5,1205.83 1362.5,1248.17 1362.5,1290.5C 1343.83,1290.5 1325.17,1290.5 1306.5,1290.5C 1306.5,1290.17 1306.5,1289.83 1306.5,1289.5C 1324.83,1289.5 1343.17,1289.5 1361.5,1289.5C 1361.5,1178.83 1361.5,1068.17 1361.5,957.5 Z"/></g>
<g><path style="opacity:1" fill="#8db9dd" d="M 1901.5,752.5 C 1902.5,931.666 1902.83,1111 1902.5,1290.5C 1883.66,1290.83 1864.99,1290.5 1846.5,1289.5C 1864.83,1289.5 1883.17,1289.5 1901.5,1289.5C 1901.5,1110.5 1901.5,931.5 1901.5,752.5 Z"/></g>
<g><path style="opacity:1" fill="#aac9e5" d="M 1080.5,1296.5 C 1085.73,1296.44 1090.73,1297.11 1095.5,1298.5C 1090.27,1298.56 1085.27,1297.89 1080.5,1296.5 Z"/></g>
<g><path style="opacity:1" fill="#5d99cd" d="M 296.5,1301.5 C 288.559,1303.04 280.392,1303.7 272,1303.5C 265.99,1303.5 260.157,1303.17 254.5,1302.5C 268.516,1302.65 282.516,1302.32 296.5,1301.5 Z"/></g>
<g><path style="opacity:1" fill="#588dc7" d="M 1992.5,1356.5 C 1991.01,1362.12 1989.01,1367.45 1986.5,1372.5C 1986.81,1367.29 1987.97,1362.29 1990,1357.5C 1990.67,1356.75 1991.5,1356.41 1992.5,1356.5 Z"/></g>
<g><path style="opacity:0.725" fill="#76a6d3" d="M 872.5,2036.5 C 876.489,2036.12 880.155,2036.78 883.5,2038.5C 879.64,2038.19 875.974,2037.52 872.5,2036.5 Z"/></g>
<g><path style="opacity:0.765" fill="#6ca0d0" d="M 887.5,2038.5 C 892.731,2038.44 897.731,2039.11 902.5,2040.5C 897.269,2040.56 892.269,2039.89 887.5,2038.5 Z"/></g>
</svg>
